# xmcd
# Track frame offsets:
# 150
# 16795
# 28780
# 40155
# 54822
# 70745
# 90417
# 111262
# 125180
# 140275
# 159015
# 174190
#
# Disc length: 2503 seconds
# Revision: 2
# Processed by: cddbd v1.4PL0 Copyright (c) Steve Scherf et al.
# Submitted via: VisiTrax 2.9.5.181 - For more info visit www.synapsa.com
#
DISCID=8a09c50c
DTITLE=Various Artist - Denim and Diamonds - Favorite Line Dances
DYEAR=1900
DGENRE=
TTITLE0=Steve Wariner - Baby I'm Yours
TTITLE1=Tanya Tucker - It's A Little Too Late
TTITLE2=Highway 101 - Bing Bang Boom
TTITLE3=Lionel Cartwright - My Heart Is Set On You
TTITLE4=Wylie and The Wild West Show - Talkin' About My Baby
TTITLE5=Brooks and Dunn - Neon Moon
TTITLE6=Clarence Carter - Strokin'
TTITLE7=Ricky Lynn Gregg - If I had A Cheatin' Heart
TTITLE8=Tim Mensy - This Ol' Heart
TTITLE9=Dwight Yoakum - Dangerous Man
TTITLE10=Patty Loveless - Jealous Bone
TTITLE11=Hank Williams - Honky Tonk Blues
EXTD=
EXTT0=
EXTT1=
EXTT2=
EXTT3=
EXTT4=
EXTT5=
EXTT6=
EXTT7=
EXTT8=
EXTT9=
EXTT10=
EXTT11=
PLAYORDER=
